<?xml version="1.0" encoding="UTF-8"?>
<svg id="Base_Colour" data-name="Base Colour" xmlns="http://www.w3.org/2000/svg" viewBox="0 0 450 120">
  <defs>
    <style>
      .cls-1 {
        fill: #0044fc;
      }
    </style>
  </defs>
  <path class="cls-1" d="M175.27,100h-16.08c-5.17-16.33-19.4-30.11-36.86-30.11v30.11h-15.29s0-47.84,0-47.84c6.18-.1,15.23.07,21.39.68,22.57,2.26,46.85,25.23,46.85,47.16Z"/>
  <path class="cls-1" d="M163.84,63.73c-3.79-3.61-7.92-6.74-12.22-9.3,5.5-6.38,6.65-19.13-8.31-19.13h-36.28c0-8.45,6.85-15.29,15.29-15.29h24.9c28.42,0,29.06,29.86,16.61,43.73Z"/>
  <path class="cls-1" d="M230.4,71.68c0,4.01-.72,7.74-2.16,11.2-1.44,3.46-3.39,6.45-5.86,8.97-2.47,2.52-5.37,4.51-8.7,5.97-3.33,1.45-6.89,2.18-10.7,2.18s-7.33-.73-10.65-2.18c-3.33-1.45-6.23-3.44-8.72-5.97-2.49-2.52-4.45-5.51-5.89-8.97-1.44-3.46-2.16-7.19-2.16-11.2s.72-7.85,2.16-11.33c1.44-3.48,3.4-6.47,5.89-9,2.49-2.52,5.4-4.5,8.72-5.94,3.32-1.44,6.87-2.16,10.65-2.16s7.38.68,10.7,2.03c3.32,1.35,6.22,3.28,8.7,5.77,2.47,2.49,4.43,5.48,5.86,8.97,1.44,3.49,2.16,7.38,2.16,11.65ZM216.62,71.68c0-2.21-.36-4.2-1.08-5.99-.72-1.79-1.7-3.33-2.93-4.61-1.24-1.29-2.68-2.27-4.34-2.96-1.66-.68-3.42-1.03-5.29-1.03s-3.64.34-5.29,1.03c-1.66.68-3.09,1.67-4.31,2.96-1.22,1.29-2.18,2.82-2.88,4.61-.7,1.79-1.05,3.78-1.05,5.99,0,2.07.35,3.99,1.05,5.76.7,1.77,1.66,3.31,2.88,4.61,1.22,1.3,2.66,2.33,4.31,3.08,1.65.75,3.42,1.13,5.29,1.13s3.63-.35,5.29-1.05c1.65-.7,3.1-1.69,4.34-2.96,1.23-1.27,2.21-2.81,2.93-4.61.72-1.8,1.08-3.79,1.08-5.96Z"/>
  <path class="cls-1" d="M283.24,58.52c-1.3-3.05-3.06-5.69-5.32-7.96-2.25-2.27-4.88-4.06-7.91-5.35-3.01-1.3-6.21-1.95-9.61-1.95-3.15,0-6.18.57-9.07,1.7-2.88,1.13-5.47,2.73-7.76,4.8l-6.23-7.43c-.66-.79-1.95-.34-1.96.69-.14,16.84-.11,41.38.08,56.98h14.18v-31.8c0-1.45.29-2.83.82-4.12.56-1.3,1.33-2.44,2.29-3.4.98-.98,2.12-1.73,3.43-2.29,1.31-.56,2.73-.84,4.21-.84s2.83.29,4.11.84c1.28.56,2.41,1.31,3.38,2.29.98.96,1.73,2.1,2.29,3.4.56,1.3.82,2.68.82,4.12v31.8c7.84,0,14.18-6.34,14.18-14.18v-17.62c0-3.42-.64-6.65-1.95-9.68Z"/>
  <polygon class="cls-1" points="322.9 71.64 342.97 100 325.37 100 314.09 84.06 302.81 100 285.22 100 305.3 71.64 285.22 43.26 302.81 43.26 314.09 59.19 325.37 43.26 342.97 43.26 322.9 71.64"/>
</svg>